<?xml version="1.0" encoding="UTF-8" standalone="no"?>
<svg
   xmlns:dc="http://purl.org/dc/elements/1.1/"
   xmlns:cc="http://creativecommons.org/ns#"
   xmlns:rdf="http://www.w3.org/1999/02/22-rdf-syntax-ns#"
   xmlns:svg="http://www.w3.org/2000/svg"
   xmlns="http://www.w3.org/2000/svg"
   xmlns:sodipodi="http://sodipodi.sourceforge.net/DTD/sodipodi-0.dtd"
   xmlns:inkscape="http://www.inkscape.org/namespaces/inkscape"
   viewBox="0 0 1140 360"
   enable-background="new 0 0 1140 360"
   version="1.1"
   id="svg6"
   sodipodi:docname="bannerModbusTCP.svg"
   inkscape:version="0.92.1 r15371">
  <metadata
     id="metadata12">
    <rdf:RDF>
      <cc:Work
         rdf:about="">
        <dc:format>image/svg+xml</dc:format>
        <dc:type
           rdf:resource="http://purl.org/dc/dcmitype/StillImage" />
        <dc:title></dc:title>
      </cc:Work>
    </rdf:RDF>
  </metadata>
  <defs
     id="defs10" />
  <sodipodi:namedview
     pagecolor="#ffffff"
     bordercolor="#666666"
     borderopacity="1"
     objecttolerance="10"
     gridtolerance="10"
     guidetolerance="10"
     inkscape:pageopacity="0"
     inkscape:pageshadow="2"
     inkscape:window-width="1440"
     inkscape:window-height="837"
     id="namedview8"
     showgrid="false"
     inkscape:zoom="0.85438596"
     inkscape:cx="719.46407"
     inkscape:cy="180"
     inkscape:window-x="-8"
     inkscape:window-y="-8"
     inkscape:window-maximized="1"
     inkscape:current-layer="svg6" />
  <path
     d="M0 0h1140v360h-1140v-360z"
     id="path2"
     style="fill:#008080"
     fill="#56B4D9" />
  <path
     inkscape:connector-curvature="0"
     style="fill:#ffffff"
     d="m -365.43589,-183.95212 h -3.996 l -3.266,-8.637 h -13.063 l -3.072,8.637 h -4.018 l 11.816,-30.809 h 3.738 z m -8.443,-11.881 -4.834,-13.127 c -0.158,-0.43 -0.315,-1.117 -0.473,-2.063 h -0.086 c -0.144,0.874 -0.308,1.562 -0.494,2.063 l -4.791,13.127 z m 10.921,10.635 v -4.254 c 0.487,0.43 1.07,0.816 1.751,1.16 0.68,0.344 1.396,0.634 2.148,0.87 0.752,0.236 1.507,0.419 2.267,0.548 0.759,0.129 1.461,0.193 2.105,0.193 2.22,0 3.878,-0.412 4.974,-1.235 1.096,-0.823 1.644,-2.009 1.644,-3.556 0,-0.831 -0.183,-1.554 -0.548,-2.17 -0.365,-0.616 -0.87,-1.178 -1.515,-1.687 -0.645,-0.509 -1.407,-0.995 -2.288,-1.461 -0.881,-0.466 -1.83,-0.956 -2.847,-1.472 -1.074,-0.544 -2.077,-1.096 -3.008,-1.654 -0.931,-0.559 -1.74,-1.175 -2.428,-1.848 -0.688,-0.673 -1.229,-1.436 -1.622,-2.288 -0.394,-0.853 -0.591,-1.852 -0.591,-2.997 0,-1.403 0.308,-2.625 0.924,-3.663 0.616,-1.038 1.425,-1.895 2.428,-2.567 1.002,-0.673 2.145,-1.175 3.427,-1.504 1.282,-0.329 2.589,-0.494 3.921,-0.494 3.036,0 5.249,0.365 6.639,1.096 v 4.061 c -1.819,-1.261 -4.154,-1.891 -7.004,-1.891 -0.788,0 -1.576,0.082 -2.363,0.247 -0.788,0.165 -1.49,0.434 -2.105,0.806 -0.616,0.372 -1.117,0.853 -1.504,1.439 -0.387,0.586 -0.58,1.304 -0.58,2.148 0,0.788 0.146,1.468 0.44,2.041 0.293,0.573 0.727,1.096 1.3,1.568 0.573,0.473 1.271,0.931 2.095,1.375 0.823,0.444 1.772,0.931 2.847,1.461 1.103,0.544 2.148,1.117 3.137,1.719 0.989,0.602 1.854,1.268 2.6,1.998 0.745,0.73 1.335,1.54 1.772,2.428 0.437,0.888 0.655,1.905 0.655,3.051 0,1.519 -0.297,2.804 -0.892,3.856 -0.595,1.053 -1.396,1.908 -2.406,2.567 -1.01,0.659 -2.174,1.135 -3.491,1.429 -1.318,0.293 -2.707,0.44 -4.168,0.44 -0.487,0 -1.089,-0.04 -1.805,-0.118 -0.716,-0.079 -1.447,-0.193 -2.191,-0.344 -0.745,-0.15 -1.45,-0.337 -2.116,-0.559 -0.666,-0.222 -1.202,-0.467 -1.602,-0.739 z m 27.808,-10.399 v 11.645 h -3.609 v -30.809 h 8.465 c 3.294,0 5.847,0.802 7.659,2.406 1.812,1.604 2.718,3.867 2.718,6.789 0,2.922 -1.006,5.313 -3.019,7.176 -2.013,1.862 -4.73,2.793 -8.153,2.793 z m 0,-15.898 v 12.633 h 3.781 c 2.492,0 4.394,-0.569 5.704,-1.708 1.31,-1.139 1.966,-2.746 1.966,-4.823 0,-4.067 -2.406,-6.102 -7.219,-6.102 z m 21.169,28.015 c -0.659,0 -1.221,-0.236 -1.687,-0.709 -0.466,-0.473 -0.698,-1.038 -0.698,-1.697 0,-0.659 0.232,-1.229 0.698,-1.708 0.465,-0.479 1.027,-0.72 1.687,-0.72 0.673,0 1.246,0.24 1.719,0.72 0.473,0.48 0.709,1.049 0.709,1.708 0,0.659 -0.236,1.225 -0.709,1.697 -0.473,0.472 -1.047,0.709 -1.719,0.709 z m 33.007,-0.472 h -4.426 l -15.855,-24.557 c -0.401,-0.616 -0.73,-1.261 -0.988,-1.934 h -0.129 c 0.114,0.659 0.172,2.069 0.172,4.232 v 22.258 h -3.609 v -30.808 h 4.684 l 15.426,24.17 c 0.645,1.003 1.06,1.69 1.246,2.063 h 0.086 c -0.144,-0.888 -0.215,-2.399 -0.215,-4.533 v -21.7 h 3.609 v 30.809 z m 23.79,0 h -16.328 v -30.809 h 15.641 v 3.266 h -12.031 v 10.248 h 11.129 v 3.244 h -11.129 v 10.785 h 12.719 v 3.266 z m 23.533,-27.543 h -8.895 v 27.543 h -3.609 v -27.543 h -8.873 v -3.266 h 21.377 z m 36.623,26.254 c -2.277,1.203 -5.113,1.805 -8.508,1.805 -4.383,0 -7.892,-1.411 -10.527,-4.232 -2.636,-2.821 -3.953,-6.524 -3.953,-11.107 0,-4.927 1.482,-8.909 4.447,-11.945 2.965,-3.036 6.725,-4.555 11.279,-4.555 2.922,0 5.342,0.423 7.262,1.268 v 3.846 c -2.206,-1.231 -4.641,-1.848 -7.305,-1.848 -3.538,0 -6.406,1.182 -8.604,3.545 -2.199,2.363 -3.298,5.521 -3.298,9.475 0,3.753 1.027,6.742 3.083,8.97 2.055,2.228 4.751,3.341 8.089,3.341 3.094,0 5.772,-0.688 8.035,-2.063 z m 14.38,1.804 c -3.251,0 -5.848,-1.027 -7.788,-3.083 -1.941,-2.056 -2.911,-4.78 -2.911,-8.175 0,-3.695 1.01,-6.581 3.029,-8.658 2.019,-2.077 4.748,-3.115 8.186,-3.115 3.28,0 5.84,1.01 7.681,3.029 1.84,2.02 2.761,4.819 2.761,8.4 0,3.509 -0.992,6.32 -2.976,8.433 -1.984,2.113 -4.645,3.169 -7.982,3.169 z m 0.258,-20.066 c -2.263,0 -4.054,0.77 -5.371,2.31 -1.318,1.54 -1.977,3.663 -1.977,6.37 0,2.606 0.666,4.662 1.998,6.166 1.332,1.504 3.115,2.256 5.35,2.256 2.277,0 4.028,-0.737 5.253,-2.213 1.225,-1.476 1.837,-3.573 1.837,-6.295 0,-2.75 -0.612,-4.87 -1.837,-6.359 -1.225,-1.489 -2.976,-2.235 -5.253,-2.235 z m 27.185,1.117 c -0.616,-0.473 -1.504,-0.709 -2.664,-0.709 -1.504,0 -2.761,0.709 -3.771,2.127 -1.01,1.418 -1.515,3.352 -1.515,5.801 v 11.215 h -3.523 v -22 h 3.523 v 4.533 h 0.086 c 0.501,-1.547 1.268,-2.754 2.299,-3.62 1.031,-0.866 2.184,-1.3 3.459,-1.3 0.917,0 1.618,0.101 2.105,0.301 v 3.652 z m 20.89,8.315 h -15.533 c 0.057,2.449 0.716,4.34 1.977,5.672 1.26,1.332 2.993,1.998 5.199,1.998 2.478,0 4.755,-0.816 6.832,-2.449 v 3.309 c -1.934,1.403 -4.49,2.105 -7.67,2.105 -3.108,0 -5.55,-0.999 -7.326,-2.997 -1.776,-1.998 -2.664,-4.809 -2.664,-8.433 0,-3.423 0.97,-6.213 2.911,-8.368 1.94,-2.155 4.351,-3.233 7.229,-3.233 2.878,0 5.106,0.931 6.682,2.793 1.575,1.862 2.363,4.447 2.363,7.756 z m -3.61,-2.987 c -0.015,-2.034 -0.505,-3.616 -1.472,-4.748 -0.967,-1.132 -2.31,-1.697 -4.028,-1.697 -1.662,0 -3.072,0.595 -4.232,1.783 -1.16,1.188 -1.876,2.743 -2.148,4.662 z m 40.698996,-39.408 h -1 v 74 h 1 z m 83.592,54.095 h -1.842 l -7.165,-24.235 c -0.359,-1.243 -0.562,-2.253 -0.606,-3.032 h -0.09 c -0.045,0.659 -0.277,1.655 -0.696,2.987 l -7.637,24.28 h -1.842 l -9.568,-32.209 h 2.493 l 7.345,25.808 c 0.329,1.168 0.562,2.119 0.696,2.853 h 0.09 c 0.09,-0.554 0.352,-1.505 0.786,-2.853 l 7.951,-25.808 h 1.123 l 7.3,25.808 c 0.344,1.198 0.576,2.149 0.696,2.853 h 0.09 c 0.075,-0.419 0.194,-0.898 0.359,-1.438 l 7.5469997,-27.223 h 2.403 z m 14.44499975,-28.795 c -0.449,0 -0.846,-0.165 -1.19,-0.494 -0.345,-0.329 -0.517,-0.749 -0.517,-1.258 0,-0.494 0.176,-0.895 0.528,-1.202 0.352,-0.307 0.745,-0.46 1.179,-0.46 0.46399995,0 0.87199995,0.15 1.22399995,0.449 0.352,0.3 0.528,0.704 0.528,1.213 0,0.479 -0.172,0.891 -0.517,1.235 -0.344,0.345 -0.756,0.517 -1.23499995,0.517 z m -1.011,28.795 v -23 H 1.8661057 v 23 z m 24.23900025,0 v -13.387 c 0,-5.525 -1.992,-8.288 -5.975,-8.288 -2.216,0 -4.036,0.813 -5.458,2.437 -1.423,1.625 -2.134,3.635 -2.134,6.031 v 13.207 H 8.4061057 v -23 h 2.0660003 v 4.178 h 0.09 c 1.677,-3.159 4.297,-4.739 7.861,-4.739 2.485,0 4.387,0.828 5.705,2.482 1.317,1.655 1.977,4.017 1.977,7.086 v 13.993 z m 24.485,0 v -4.178 h -0.09 c -0.748,1.453 -1.855,2.605 -3.324,3.459 -1.467,0.854 -3.122,1.28 -4.963,1.28 -2.83,0 -5.14,-1.033 -6.929,-3.1 -1.79,-2.066 -2.684,-4.919 -2.684,-8.558 0,-3.713 0.977,-6.719 2.931,-9.018 1.954,-2.298 4.488,-3.448 7.603,-3.448 3.445,0 5.9,1.415 7.367,4.245 h 0.09 v -14.733 h 2.066 v 34.051 z m 0,-13.993 c 0,-2.141 -0.678,-3.957 -2.031,-5.447 -1.355,-1.49 -3.18,-2.235 -5.47,-2.235 -2.411,0 -4.402,0.925 -5.975,2.774 -1.572,1.85 -2.358,4.391 -2.358,7.625 0,3.175 0.708,5.626 2.123,7.356 1.415,1.73 3.238,2.594 5.469,2.594 2.62,0 4.649,-0.812 6.086,-2.437 1.438,-1.625 2.156,-3.605 2.156,-5.941 z m 17.838,14.554 c -3.354,0 -6.009,-1.104 -7.962,-3.313 -1.955,-2.208 -2.932,-5.08 -2.932,-8.614 0,-3.818 1.021,-6.806 3.066,-8.962 2.043,-2.156 4.735,-3.234 8.074,-3.234 3.279,0 5.87,1.071 7.771,3.212 1.901,2.142 2.853,5.106 2.853,8.895 0,3.579 -0.97,6.477 -2.909,8.692 -1.938,2.216 -4.592,3.324 -7.961,3.324 z m 0.157,-22.236 c -2.71,0 -4.87,0.914 -6.48,2.74 -1.609,1.827 -2.414,4.365 -2.414,7.614 0,3.01 0.786,5.428 2.358,7.255 1.572,1.827 3.721,2.74 6.446,2.74 2.771,0 4.904,-0.898 6.401,-2.695 1.497,-1.797 2.246,-4.29 2.246,-7.479 0,-3.279 -0.745,-5.795 -2.235,-7.547 -1.489,-1.752 -3.596,-2.628 -6.322,-2.628 z m 35.087004,21.675 h -1.932004 l -5.009,-17.34 c -0.135,-0.479 -0.255,-1.123 -0.359,-1.932 h -0.112 c -0.03,0.345 -0.18,0.974 -0.449,1.887 l -5.615,17.385 h -1.932 l -6.94,-23 h 2.291 l 5.346,18.351 c 0.135,0.479 0.239,1.123 0.314,1.932 h 0.18 c 0.03,-0.434 0.172,-1.078 0.427,-1.932 l 5.84,-18.351 h 1.415 l 5.211004,18.351 c 0.12,0.435 0.225,1.078 0.314,1.932 h 0.18 c 0,-0.434 0.127,-1.078 0.382,-1.932 l 5.458,-18.351 h 2.134 z m 9.616,-1.011 v -2.493 c 0.778,0.674 1.722,1.206 2.83,1.595 1.108,0.39 2.066,0.584 2.875,0.584 3.608,0 5.413,-1.475 5.413,-4.425 0,-1.018 -0.396,-1.887 -1.19,-2.605 -0.794,-0.718 -2.081,-1.46 -3.863,-2.224 -2.201,-0.958 -3.747,-1.95 -4.638,-2.976 -0.892,-1.025 -1.337,-2.272 -1.337,-3.74 0,-1.872 0.715,-3.384 2.146,-4.537 1.43,-1.153 3.192,-1.729 5.289,-1.729 1.977,0 3.669,0.404 5.076,1.213 v 2.336 c -1.707,-1.108 -3.474,-1.662 -5.301,-1.662 -1.513,0 -2.732,0.393 -3.661,1.179 -0.929,0.786 -1.393,1.808 -1.393,3.066 0,1.093 0.292,1.98 0.876,2.662 0.584,0.682 1.872,1.464 3.863,2.347 2.396,1.078 4.043,2.078 4.941,2.999 0.898,0.921 1.348,2.145 1.348,3.672 0,1.827 -0.686,3.335 -2.055,4.526 -1.371,1.19 -3.261,1.786 -5.672,1.786 -2.215,-0.002 -4.064,-0.526 -5.547,-1.574 z m 80.185,1.011 v -32.209 h 2.224 v 30.188 h 12.915 v 2.021 z m 20.802,-28.795 c -0.449,0 -0.846,-0.165 -1.19,-0.494 -0.345,-0.329 -0.517,-0.749 -0.517,-1.258 0,-0.494 0.176,-0.895 0.528,-1.202 0.352,-0.307 0.744,-0.46 1.179,-0.46 0.464,0 0.872,0.15 1.224,0.449 0.353,0.3 0.528,0.704 0.528,1.213 0,0.479 -0.172,0.891 -0.517,1.235 -0.345,0.345 -0.756,0.517 -1.235,0.517 z m -1.011,28.795 v -23 h 2.066 v 23 z m 24.238,0 v -13.387 c 0,-5.525 -1.991,-8.288 -5.975,-8.288 -2.216,0 -4.035,0.813 -5.458,2.437 -1.423,1.625 -2.134,3.635 -2.134,6.031 v 13.207 h -2.066 v -23 h 2.066 v 4.178 h 0.09 c 1.677,-3.159 4.298,-4.739 7.861,-4.739 2.485,0 4.388,0.828 5.705,2.482 1.317,1.655 1.977,4.017 1.977,7.086 v 13.993 z m 23.34,0 v -4.178 h -0.09 c -1.603,3.16 -4.073,4.739 -7.412,4.739 -5.436,0 -8.153,-3.421 -8.153,-10.265 v -13.296 h 2.089 v 12.78 c 0,3.115 0.513,5.376 1.539,6.783 1.025,1.408 2.639,2.111 4.84,2.111 2.142,0 3.875,-0.786 5.199,-2.358 1.326,-1.572 1.988,-3.668 1.988,-6.289 v -13.027 h 2.066 v 23 z m 15.727,-11.276 7.502,11.275 h -2.628 l -6.064,-9.703 h -0.09 l -0.809,1.28 c -0.104,0.18 -0.232,0.382 -0.382,0.606 l -5.076,7.816 h -2.516 l 7.682,-11.23 -7.547,-11.77 h 2.426 l 5.121,8.243 c 0.659,1.063 1.056,1.722 1.19,1.977 h 0.09 l 1.146,-1.887 5.346,-8.333 h 2.426 z m 85.656,11.837 c -4.552,0 -8.18,-1.512 -10.883,-4.537 -2.702,-3.024 -4.054,-6.955 -4.054,-11.792 0,-5.136 1.389,-9.25 4.167,-12.342 2.777,-3.092 6.569,-4.638 11.376,-4.638 4.343,0 7.857,1.486 10.546,4.458 2.688,2.973 4.031,6.87 4.031,11.691 0,5.331 -1.378,9.523 -4.133,12.578 -2.755,3.055 -6.438,4.582 -11.05,4.582 z m 0.224,-31.288 c -3.743,0 -6.824,1.355 -9.242,4.065 -2.419,2.71 -3.628,6.259 -3.628,10.646 0,4.433 1.146,7.962 3.437,10.59 2.291,2.628 5.346,3.942 9.164,3.942 3.983,0 7.135,-1.299 9.456,-3.897 2.321,-2.598 3.481,-6.218 3.481,-10.86 0,-4.552 -1.135,-8.104 -3.402,-10.658 -2.27,-2.551 -5.357,-3.828 -9.266,-3.828 z m 19.702,29.581 v -2.538 c 2.306,1.468 4.642,2.201 7.008,2.201 2.516,0 4.425,-0.52 5.728,-1.561 1.303,-1.041 1.954,-2.497 1.954,-4.369 0,-1.647 -0.438,-2.961 -1.313,-3.942 -0.877,-0.98 -2.774,-2.317 -5.694,-4.009 -3.265,-1.901 -5.331,-3.493 -6.199,-4.773 -0.868,-1.28 -1.303,-2.759 -1.303,-4.436 0,-2.276 0.884,-4.208 2.65,-5.795 1.767,-1.587 4.125,-2.381 7.075,-2.381 1.917,0 3.833,0.322 5.75,0.966 v 2.336 c -1.887,-0.854 -3.9,-1.28 -6.042,-1.28 -2.187,0 -3.919,0.554 -5.2,1.662 -1.279,1.108 -1.92,2.516 -1.92,4.223 0,1.647 0.438,2.958 1.314,3.931 0.875,0.974 2.766,2.299 5.671,3.976 3.01,1.707 5.013,3.223 6.009,4.548 0.995,1.325 1.493,2.849 1.493,4.571 0,2.471 -0.857,4.485 -2.571,6.042 -1.715,1.558 -4.137,2.336 -7.267,2.336 -1.108,0 -2.385,-0.172 -3.829,-0.517 -1.446,-0.345 -2.551,-0.742 -3.314,-1.191 z m 40.5,1.146 -7.412,-12.286 c -0.464,-0.764 -0.861,-1.512 -1.19,-2.246 h -0.112 c -0.404,0.824 -0.831,1.572 -1.28,2.246 l -7.547,12.286 h -2.673 l 10.175,-16.239 -9.568,-15.97 h 2.673 l 7.21,12.106 c 0.374,0.629 0.764,1.348 1.168,2.156 h 0.09 l 1.19,-2.156 7.165,-12.106 h 2.583 l -9.658,15.925 9.883,16.284 z"
     id="path4" />
  <text
     xml:space="preserve"
     style="font-style:normal;font-variant:normal;font-weight:normal;font-stretch:normal;font-size:42.66666794px;line-height:1.25;font-family:'Segoe UI';-inkscape-font-specification:'Segoe UI';letter-spacing:0px;word-spacing:0px;fill:#ffffff;fill-opacity:1;stroke:none"
     x="73.476151"
     y="127.43571"
     id="text4491"><tspan
       sodipodi:role="line"
       id="tspan4489"
       x="73.476151"
       y="127.43571">Modbus TCP/IP</tspan></text>
  <path
     inkscape:connector-curvature="0"
     d="m 607.84641,79.55031 h -1 v 74 h 1 z"
     id="path4554-2"
     style="fill:#ffffff" />
  <text
     xml:space="preserve"
     style="font-style:normal;font-variant:normal;font-weight:300;font-stretch:normal;font-size:42.66666794px;line-height:1.25;font-family:'Segoe UI';-inkscape-font-specification:'Segoe UI Light';letter-spacing:0px;word-spacing:0px;fill:#ffffff;fill-opacity:1;stroke:none"
     x="635.11255"
     y="127.43571"
     id="text4669"><tspan
       sodipodi:role="line"
       id="tspan4667"
       x="635.11255"
       y="127.43571">Gateway</tspan></text>
  <g
     data-name="Layer 2"
     id="Layer_2"
     transform="matrix(0.74098261,0,0,0.73331169,804.63567,60.357885)">
    <g
       data-name="Layer 4"
       id="Layer_4">
      <path
         id="path4495"
         d="m 425,67.51 c -0.16,1 -0.75,1.15 -1.68,1.13 -3,-0.07 -6,0 -9,0 -0.58,0 -1,0.05 -1.08,-0.81 -0.08,-1.19 -1.15,-1.47 -2.1,-1.6 a 39.36,39.36 0 0 0 -4.51,-0.41 62.32,62.32 0 0 0 -8.95,0.14 6.19,6.19 0 0 0 -2.63,0.75 2.28,2.28 0 0 0 -1.21,2.21 c 0.1,1 1,1.33 1.83,1.49 a 44.09,44.09 0 0 0 8,0.41 72.73,72.73 0 0 1 13.45,0.71 c 5,0.89 6.71,3.05 6.41,8.06 A 22,22 0 0 1 422,86.66 c -1.6,3.89 -4.67,5.79 -8.68,6.53 a 77.08,77.08 0 0 1 -15.76,0.84 62.27,62.27 0 0 1 -12.84,-1.26 c -3.9,-0.91 -5.53,-2.91 -5.59,-6.94 a 16.92,16.92 0 0 1 0.22,-3.3 c 0.11,-0.57 0.3,-0.82 0.92,-0.82 3.28,0 6.57,0 9.85,0 0.48,0 0.71,0.08 0.73,0.66 0.07,1.64 0.55,2.19 2.12,2.63 a 22.71,22.71 0 0 0 5.26,0.56 47.19,47.19 0 0 0 10.81,-0.35 3.8,3.8 0 0 0 3.14,-2.32 c 0.64,-1.65 0.11,-2.75 -1.6,-3.17 a 16.27,16.27 0 0 0 -3.72,-0.46 c -3.54,0 -7.08,0 -10.62,-0.07 a 36,36 0 0 1 -9.09,-1.05 c -3,-0.86 -4.32,-2.57 -4.43,-5.69 a 19.75,19.75 0 0 1 1.45,-8 c 1.46,-3.68 4.31,-5.54 8.09,-6.24 a 77.62,77.62 0 0 1 16.86,-0.79 63.19,63.19 0 0 1 10,1 c 2.89,0.56 5.1,1.84 5.87,4.89 z"
         class="cls-1"
         inkscape:connector-curvature="0"
         style="fill:#199bd0" />
      <path
         id="path4497"
         d="m 82.79,135.47 c -0.18,-0.45 -0.63,-0.31 -0.95,-0.38 A 18.3,18.3 0 0 1 67.37,117.35 c 0,-0.48 0.07,-1 0.1,-1.43 a 17.66,17.66 0 0 1 6.33,-12.48 10.36,10.36 0 0 1 4.9,-2.77 c 1.09,3 2.14,6 3,9.09 l -0.12,0.12 -4.69,-2.18 c 0.54,1.62 1,3 1.46,4.38 a 0.91,0.91 0 0 0 0.55,0.5 c 2,1 4,1.94 5.93,3 0.66,0.34 1,0.17 1.25,-0.46 0.92,-1.93 1.9,-3.82 2.85,-5.73 0.13,-0.26 0.32,-0.53 0.22,-0.83 -0.46,-1.41 -0.93,-2.81 -1.49,-4.48 l -2.55,5 L 82,99.39 a 22.73,22.73 0 0 1 4.6,-0.22 16.9,16.9 0 0 1 8.5,2.57 23.12,23.12 0 0 1 4.9,4.26 21.23,21.23 0 0 1 3.43,7.69 A 18.23,18.23 0 0 1 89.6,135 c -0.43,0.1 -1,0 -1.28,0.44 z"
         class="cls-2"
         inkscape:connector-curvature="0"
         style="fill:#fcc423" />
      <path
         id="path4499"
         d="m 0,52.68 c 0.3,-1.17 0.54,-2.35 0.92,-3.49 a 18.22,18.22 0 0 1 28,-8.91 c 0.44,0.32 0.78,0.8 1.37,0.89 2.36,2.64 4.52,5.37 5.4,8.93 a 18.71,18.71 0 0 1 0.38,7.61 l -10.18,-3 4.95,-2.71 c -1.52,-0.44 -2.73,-0.75 -3.89,-1.16 a 1.87,1.87 0 0 0 -1.67,0.17 c -1.83,1 -3.68,2 -5.54,3 -0.6,0.31 -0.68,0.59 -0.34,1.19 1.07,1.89 2.08,3.81 3.13,5.72 0.12,0.22 0.26,0.53 0.46,0.59 1.44,0.48 2.9,0.91 4.57,1.42 l -2.38,-4.66 0.09,-0.1 c 3.35,0.83 6.65,1.84 9.93,2.92 A 2.17,2.17 0 0 1 35.12,61.63 18.57,18.57 0 0 1 26.8,71 23.47,23.47 0 0 1 20.6,73 20.15,20.15 0 0 1 11.5,71.82 17.92,17.92 0 0 1 0.19,57.61 2.83,2.83 0 0 0 0,57.11 Z"
         class="cls-2"
         inkscape:connector-curvature="0"
         style="fill:#fcc423" />
      <path
         id="path4501"
         d="m 42.47,30.29 c 0.06,-0.48 -0.33,-0.72 -0.56,-1 A 18.17,18.17 0 0 1 53.52,0.2 2.4,2.4 0 0 0 54,0 h 4.65 c 0.28,0.32 0.69,0.2 1,0.27 A 18.23,18.23 0 0 1 74.44,16.71 29,29 0 0 1 74,22.63 19.68,19.68 0 0 1 68.4,31.7 14.13,14.13 0 0 1 62.13,35.22 l -3.37,-11.08 5,2.68 c -0.49,-1.61 -0.89,-2.9 -1.26,-4.2 a 1.38,1.38 0 0 0 -0.75,-0.89 c -1.91,-1 -3.83,-2 -5.73,-3.1 -0.57,-0.32 -0.88,-0.29 -1.2,0.33 -1,1.93 -2.05,3.82 -3.08,5.74 -0.14,0.25 -0.35,0.49 -0.25,0.82 l 1.33,4.56 2.68,-4.9 c 0.23,0.77 0.41,1.32 0.57,1.88 C 57,30 58,33 58.69,36 a 0.65,0.65 0 0 1 -0.57,0.26 C 52.55,36.57 47.63,35.07 43.6,31.07 43.27,30.78 43,30.35 42.47,30.29 Z"
         class="cls-2"
         inkscape:connector-curvature="0"
         style="fill:#fcc423" />
      <path
         id="path4503"
         d="m 42.47,30.29 c 0.53,0.06 0.8,0.49 1.13,0.82 4,4 9,5.5 14.52,5.19 a 0.65,0.65 0 0 0 0.57,-0.26 6.61,6.61 0 0 1 0.35,0.8 c 1.94,6.48 3.88,13 5.78,19.46 a 8,8 0 0 1 0.66,2.83 l -4.73,-2.51 c 0.45,1.49 0.87,2.71 1.18,3.95 a 1.75,1.75 0 0 0 1,1.21 c 1.83,1 3.65,1.92 5.44,2.95 0.67,0.38 1,0.34 1.35,-0.37 1,-1.9 2,-3.76 3,-5.65 0.14,-0.26 0.36,-0.51 0.27,-0.82 -0.42,-1.42 -0.86,-2.84 -1.37,-4.5 L 69,58.26 c -1.35,-4.52 -2.63,-8.74 -3.86,-13 -1,-3.35 -2.11,-6.66 -2.92,-10.06 a 14.13,14.13 0 0 0 6.27,-3.52 19.68,19.68 0 0 0 5.51,-9.05 51.4,51.4 0 0 1 14.77,3.51 c 0.37,0.15 0.72,0.35 1.08,0.53 0.4,0.53 0,1 -0.15,1.45 a 19.45,19.45 0 0 0 -0.58,8.49 24.21,24.21 0 0 0 2.26,6.52 c -1.36,0 -2.72,0.1 -4.07,0 -0.9,-0.05 -1.27,0.21 -1.44,1.13 -0.65,3.57 -1.39,7.12 -2.09,10.68 l -6.27,6 v -5.29 l -0.4,-0.32 c -0.94,1.08 -1.87,2.16 -2.82,3.22 a 1.28,1.28 0 0 0 -0.3,0.91 c 0,2.21 0,4.42 -0.1,6.63 0,0.59 0.19,0.78 0.76,0.76 1,0 2,-0.05 3,0 a 15.55,15.55 0 0 1 3.7,0.25 c -2,1.16 -3.8,2.24 -5.62,3.25 -0.67,0.37 -0.8,0.67 -0.38,1.35 0.9,1.44 1.72,2.94 2.57,4.42 a 50.75,50.75 0 0 1 -5.75,-2.66 c -0.74,-0.4 -1,-0.26 -1.37,0.48 -0.73,1.61 -1.51,3.2 -2.38,4.74 a 3.13,3.13 0 0 0 -0.26,3.1 c 0.43,0.93 0.7,1.93 1.11,3.11 l 2.5,-5 4.63,13.73 v 0 l 2.31,7.07 a 10.36,10.36 0 0 0 -4.9,2.77 17.66,17.66 0 0 0 -6.33,12.48 52.36,52.36 0 0 1 -17.18,-3.72 l -0.71,-0.31 c 0.08,-0.32 0.13,-0.64 0.24,-1 a 17.75,17.75 0 0 0 0.4,-11.2 13.72,13.72 0 0 0 -2.9,-5.7 7.66,7.66 0 0 1 0.5,-0.59 l 11.43,-11.1 4.25,-4.09 v 5.37 l 0.44,0.35 c 0.91,-1.07 1.8,-2.14 2.73,-3.19 a 1.43,1.43 0 0 0 0.35,-1 c 0,-2.14 0,-4.28 0.07,-6.42 0,-0.81 -0.27,-1 -1,-1 -2.1,0 -4.2,-0.08 -6.3,-0.12 a 1.23,1.23 0 0 0 -0.75,0.12 30.72,30.72 0 0 0 -3.49,3.43 h 5.11 c -1.56,1.67 -3.06,3.39 -4.68,5 -3.57,3.51 -7.21,7 -10.82,10.44 a 1.18,1.18 0 0 1 -0.66,-0.35 17.88,17.88 0 0 0 -15.39,-4 c -1.52,0.28 -2.89,1.08 -4.44,1.21 A 42.48,42.48 0 0 1 20.79,74.8 c -0.08,-0.58 -0.13,-1.17 -0.2,-1.76 A 23.47,23.47 0 0 0 26.8,71 a 18.57,18.57 0 0 0 8.32,-9.31 2.17,2.17 0 0 0 0.08,-0.54 5.06,5.06 0 0 1 0.65,0.11 l 18.08,5.37 4.07,1.15 -4.87,2.69 4.43,1.33 a 1,1 0 0 0 0.83,-0.21 c 1.94,-1.05 3.88,-2.12 5.83,-3.15 0.52,-0.27 0.69,-0.5 0.36,-1.08 -1.09,-1.92 -2.12,-3.87 -3.19,-5.81 -0.12,-0.22 -0.26,-0.53 -0.45,-0.59 -1.44,-0.47 -2.9,-0.88 -4.55,-1.37 l 2.34,4.53 -0.17,0.18 -22.47,-6.6 a 18.71,18.71 0 0 0 -0.38,-7.61 c -0.88,-3.56 -3,-6.29 -5.4,-8.93 A 44.35,44.35 0 0 1 42.47,30.29 Z"
         class="cls-3"
         inkscape:connector-curvature="0"
         style="fill:#f59e24" />
      <path
         id="path4505"
         d="m 83.83,55 c 0.7,-3.56 1.44,-7.11 2.09,-10.68 0.17,-0.92 0.53,-1.18 1.44,-1.13 1.35,0.07 2.71,0 4.07,0 h 4.63 10.21 a 11.47,11.47 0 0 0 1.64,0 c 1,-0.12 1.41,0.21 1.71,1.17 0.72,2.3 1.59,4.54 2.4,6.81 l 4.98,14.32 2.64,7.79 c 2.31,-3.28 4.7,-6.16 6.76,-9.3 q 4,-5.3 8,-10.6 3.51,-4.7 7,-9.43 a 1.71,1.71 0 0 1 1.55,-0.8 q 10.51,0 21,0 c 0.83,0 1,0.13 0.86,1 Q 161,62.92 157.29,81.67 c -0.71,3.58 -1.45,7.14 -2.1,10.73 -0.17,1 -0.53,1.24 -1.5,1.22 -4.06,-0.06 -8.11,0 -12.17,0 -0.78,0 -1,-0.15 -0.83,-1 a 13.8,13.8 0 0 0 0.57,-3.36 59.26,59.26 0 0 0 1.39,-6.63 q 1.83,-9.08 3.65,-18.15 c 0.42,-2.09 0.83,-4.19 1.24,-6.28 a 37.64,37.64 0 0 0 -3.08,3.8 q -3.06,4.18 -6.1,8.37 c -0.35,0.42 -0.71,0.83 -1,1.27 q -7.87,10.59 -15.71,21.2 a 1.68,1.68 0 0 1 -1.55,0.78 c -3.2,0 -6.4,0 -9.61,0 -0.48,-0.11 -0.43,-0.61 -0.67,-0.89 -1.07,-3.43 -2.23,-6.83 -3.52,-10.19 l -0.51,-1.69 -0.15,-0.1 v 0 a 21.62,21.62 0 0 0 -1.31,-4 L 97.86,58 97.64,58.06 94.46,74.23 93.8,77.69 c -1,5 -2,9.95 -3,14.94 -0.16,0.82 -0.47,1 -1.23,1 -3.17,0 -6.34,0 -9.51,0 H 76.4 a 2.74,2.74 0 0 1 0.07,-1.31 q 0.58,-3 1.16,-6.05 l 1.11,-5.6 c 0.52,-2.51 1.05,-5 1.55,-7.54 0.63,-3.2 1.22,-6.41 1.83,-9.62 L 82.61,61 Z"
         class="cls-1"
         inkscape:connector-curvature="0"
         style="fill:#199bd0" />
      <path
         id="path4507"
         d="m 251.07,88.47 c -3.16,4.38 -7.85,5 -12.6,5.4 A 47.41,47.41 0 0 1 225.7,93.41 h -0.11 c -5,-1 -6.69,-2.87 -6.65,-7.91 a 52.18,52.18 0 0 1 4.52,-20.69 10.65,10.65 0 0 1 7.71,-6.37 44.34,44.34 0 0 1 18.53,-0.32 c 2.88,0.54 5.5,1.66 6.38,5 0.18,-0.89 0.36,-1.79 0.54,-2.68 0.18,-0.89 0.38,-1.8 0.56,-2.7 0.91,-4.59 1.82,-9.17 2.7,-13.76 0.12,-0.65 0.39,-0.84 1,-0.83 3.54,0 7.08,0 10.62,0 0.86,0 0.94,0.25 0.78,1 q -3.41,17.06 -6.77,34.12 c -0.93,4.69 -1.89,9.38 -2.77,14.09 -0.17,0.93 -0.48,1.26 -1.47,1.24 -3.39,-0.07 -6.78,-0.05 -10.18,0 -0.9,0 -1.05,-0.26 -0.85,-1.09 0.35,-1.32 0.56,-2.69 0.83,-4.04 z M 241,83.68 a 39.3,39.3 0 0 0 5.18,-0.23 c 2.9,-0.32 5.38,-1.21 6.48,-4.28 a 19.76,19.76 0 0 0 1.33,-6.9 c 0,-2.59 -0.84,-3.61 -3.41,-4.06 A 40.3,40.3 0 0 0 238.78,68 c -2.42,0.28 -4.62,1 -5.78,3.44 a 19.37,19.37 0 0 0 -1.83,7.68 c -0.08,2.47 0.87,3.55 3.31,4 a 28.72,28.72 0 0 0 6.52,0.56 z"
         class="cls-1"
         inkscape:connector-curvature="0"
         style="fill:#199bd0" />
      <path
         id="path4509"
         d="m 284.76,88.42 c -0.27,1.4 -0.56,2.8 -0.81,4.2 -0.12,0.67 -0.34,1 -1.13,1 -3.5,0 -7,0 -10.51,0 -0.69,0 -1,-0.09 -0.84,-0.92 q 4.82,-24.16 9.58,-48.33 c 0.19,-1 0.57,-1.22 1.52,-1.2 3.39,0.06 6.79,0 10.18,0 0.82,0 1,0.19 0.81,1 -1.19,5.85 -2.33,11.7 -3.48,17.56 a 1.72,1.72 0 0 0 -0.06,1.07 c 0.08,0 0.18,0 0.21,-0.05 2.16,-3.17 5.43,-4.27 9,-4.8 a 44.91,44.91 0 0 1 16.7,0.33 c 3,0.68 5.23,2.2 5.7,5.52 a 20.64,20.64 0 0 1 0.18,4.74 64.76,64.76 0 0 1 -3,15.24 c -0.25,0.73 -0.55,1.45 -0.83,2.17 a 11.09,11.09 0 0 1 -8.86,7.3 47.5,47.5 0 0 1 -18.34,0 13.92,13.92 0 0 1 -1.79,-0.55 5.63,5.63 0 0 1 -3.99,-4.37 z m 12,-4.75 a 46.71,46.71 0 0 0 5.19,-0.22 c 3.21,-0.29 5.64,-1.54 6.63,-4.86 a 24.16,24.16 0 0 0 1.07,-6 c 0.11,-2.69 -0.92,-4 -3.57,-4.44 A 41.8,41.8 0 0 0 294.38,68 c -2.88,0.28 -5.16,1.41 -6.17,4.37 a 21,21 0 0 0 -1.31,6.8 c 0,2.47 0.92,3.55 3.35,4 a 29.45,29.45 0 0 0 6.48,0.51 z"
         class="cls-1"
         inkscape:connector-curvature="0"
         style="fill:#199bd0" />
      <path
         id="path4511"
         d="M 187.37,94.08 A 67.69,67.69 0 0 1 173.28,93 l -0.64,-0.15 c -4.92,-1.34 -6.64,-3.53 -6.6,-8.64 a 45.06,45.06 0 0 1 3.87,-17.69 c 2,-4.68 5.69,-7.14 10.6,-8 a 79.94,79.94 0 0 1 21.49,-0.79 30.09,30.09 0 0 1 7.13,1.43 c 3.19,1.09 4.64,3.42 5,6.64 0.49,4.89 -0.46,9.61 -1.66,14.29 a 25,25 0 0 1 -3.16,7.5 11,11 0 0 1 -5.82,4.52 36.56,36.56 0 0 1 -9,1.67 68.41,68.41 0 0 1 -7.12,0.3 z m 1.24,-10.4 a 45.72,45.72 0 0 0 5.74,-0.23 c 2.35,-0.26 4.52,-0.75 5.52,-3.3 a 23.22,23.22 0 0 0 1.69,-8.28 c 0,-2.47 -0.72,-3.28 -3.17,-3.69 A 49.19,49.19 0 0 0 185.84,68 c -2.61,0.24 -4.64,1.25 -5.54,4 a 27.9,27.9 0 0 0 -1.56,7.65 c -0.1,2.31 0.66,3.19 3,3.62 a 34.73,34.73 0 0 0 6.88,0.41 z"
         class="cls-1"
         inkscape:connector-curvature="0"
         style="fill:#199bd0" />
      <path
         id="path4513"
         d="m 358.16,86.5 c -0.38,0.47 -0.76,1 -1.16,1.42 A 16.13,16.13 0 0 1 348.51,93.23 28.55,28.55 0 0 1 333.45,93 c -5.35,-1.52 -6.9,-5.2 -6.57,-10.11 0.36,-5.34 1.88,-10.5 2.83,-15.76 0.51,-2.83 1.13,-5.63 1.65,-8.46 0.12,-0.63 0.34,-0.87 1,-0.86 q 5.37,0 10.74,0 c 0.73,0 0.85,0.18 0.71,0.89 -1.1,5.41 -2.15,10.84 -3.23,16.26 a 15.52,15.52 0 0 0 -0.35,3.73 c 0.09,2.06 0.94,3.41 2.9,4 a 17.88,17.88 0 0 0 10.77,-0.07 c 2.58,-0.84 4.09,-2.77 5.13,-5.17 a 48.54,48.54 0 0 0 2.66,-10 c 0.58,-2.89 1.18,-5.77 1.7,-8.67 0.14,-0.77 0.47,-0.93 1.17,-0.93 3.43,0 6.86,0 10.29,0 0.94,0 1.14,0.29 1,1.15 -1,4.87 -2,9.75 -2.92,14.63 -1.23,6.21 -2.49,12.42 -3.67,18.65 -0.2,1.05 -0.57,1.43 -1.69,1.39 -3.06,-0.09 -6.12,-0.08 -9.18,0 -1.1,0 -1.2,-0.36 -1,-1.29 0.43,-1.89 0.76,-3.81 1.13,-5.72 z m 0.39,-0.32 -0.07,-0.18 c 0,0 -0.06,0 -0.07,0.08 a 1,1 0 0 0 0,0.18 z"
         class="cls-1"
         inkscape:connector-curvature="0"
         style="fill:#199bd0" />
      <path
         id="path4515"
         d="m 96.06,43.15 h -4.63 a 24.21,24.21 0 0 1 -2.26,-6.52 19.45,19.45 0 0 1 0.58,-8.49 c 0.15,-0.46 0.55,-0.92 0.15,-1.45 0.54,0 0.58,-0.5 0.75,-0.84 a 18.2,18.2 0 1 1 25.53,23.55 l -1.53,0.87 -2.63,0.89 c -0.81,-2.27 -1.68,-4.51 -2.4,-6.81 -0.3,-1 -0.75,-1.29 -1.71,-1.17 a 11.47,11.47 0 0 1 -1.64,0 c 0,-2.25 0,-4.5 0,-6.75 0,-0.7 -0.16,-1 -0.92,-1 -2.14,0 -4.28,0 -6.42,0 -0.25,0 -0.6,0 -0.74,0.11 -1,1.1 -2,2.24 -3.16,3.46 h 5.13 z"
         class="cls-2"
         inkscape:connector-curvature="0"
         style="fill:#fcc423" />
      <path
         id="path4517"
         d="m 80.07,93.61 c 3.17,0 6.34,0 9.51,0 0.76,0 1.07,-0.16 1.23,-1 1,-5 2,-10 3,-14.94 l 11.83,3.08 v 0 a 0.14,0.14 0 0 0 0.15,0.1 l 0.51,1.69 a 17.23,17.23 0 0 0 3.52,10.19 c 0.24,0.28 0.2,0.78 0.67,0.89 0.16,0.31 0.48,0.53 0.49,0.92 A 46.7,46.7 0 0 1 100,106 a 23.12,23.12 0 0 0 -4.95,-4.28 16.9,16.9 0 0 0 -8.5,-2.57 22.74,22.74 0 0 0 -4.6,0.22 c -0.66,-1.89 -1.4,-3.78 -1.88,-5.76 z"
         class="cls-3"
         inkscape:connector-curvature="0"
         style="fill:#f59e24" />
      <path
         id="path4519"
         d="m 110.94,94.56 c 0,-0.39 -0.33,-0.61 -0.49,-0.92 3.2,0 6.4,-0.06 9.61,0 a 1.68,1.68 0 0 0 1.55,-0.78 q 7.83,-10.62 15.71,-21.2 c 0.33,-0.44 0.69,-0.85 1,-1.27 0.31,0.4 0.64,0.8 0.94,1.21 a 18.36,18.36 0 0 1 3.36,11 59.26,59.26 0 0 1 -1.39,6.63 21.45,21.45 0 0 1 -5.23,6.88 18.27,18.27 0 0 1 -24,-0.72 c -0.28,-0.31 -0.51,-0.8 -1.06,-0.83 z"
         class="cls-2"
         inkscape:connector-curvature="0"
         style="fill:#fcc423" />
      <path
         id="path4521"
         d="m 126.37,64 c -2.06,3.13 -4.45,6 -6.76,9.3 L 117,65.49 118.66,64.7 a 41.94,41.94 0 0 1 4.89,-0.8 c 0.92,-0.04 1.87,0.1 2.82,0.1 z"
         class="cls-2"
         inkscape:connector-curvature="0"
         style="fill:#fcc423" />
      <path
         id="path4523"
         d="m 118.62,64.7 -1.66,0.79 -4.96,-14.35 2.63,-0.89 a 44.32,44.32 0 0 1 3.99,14.45 z"
         class="cls-3"
         inkscape:connector-curvature="0"
         style="fill:#f59e24" />
      <path
         id="path4525"
         d="m 24.67,88.11 c 1.55,-0.13 2.91,-0.93 4.44,-1.21 a 17.88,17.88 0 0 1 15.39,4 1.18,1.18 0 0 0 0.67,0.35 l -7.44,7.31 V 93 l -3.33,3.2 a 1,1 0 0 0 -0.22,0.83 c 0,2.21 0,4.42 -0.08,6.63 0,0.63 0.19,0.83 0.81,0.82 2.21,0 4.42,0 6.64,0 0.25,0 0.53,0.06 0.74,-0.14 L 45.52,101.27 45.4,101 h -5 l -0.1,-0.28 7,-6.67 a 13.72,13.72 0 0 1 2.9,5.7 17.75,17.75 0 0 1 -0.4,11.2 c -0.11,0.31 -0.16,0.63 -0.24,1 a 26.44,26.44 0 0 1 -3.45,5.1 c -5.16,5.31 -11.39,7.17 -18.47,5.12 -7.08,-2.05 -11.53,-7 -12.82,-14.33 a 17.85,17.85 0 0 1 9,-19 c 0.37,-0.21 0.78,-0.28 0.85,-0.73 z"
         class="cls-2"
         inkscape:connector-curvature="0"
         style="fill:#fcc423" />
      <path
         id="path4527"
         d="m 80.07,93.61 c 0.48,2 1.21,3.87 1.88,5.78 l 3.19,9.61 2.55,-5 c 0.56,1.67 1,3.07 1.49,4.48 0.1,0.31 -0.09,0.57 -0.22,0.83 -1,1.91 -1.93,3.81 -2.85,5.73 -0.3,0.63 -0.59,0.8 -1.25,0.46 -2,-1 -4,-2 -5.93,-3 A 0.91,0.91 0 0 1 78.38,112 c -0.46,-1.38 -0.92,-2.76 -1.46,-4.38 l 4.69,2.18 c 0.07,0.08 0.15,0.13 0.22,0 0.07,-0.13 -0.07,-0.09 -0.1,-0.13 -0.88,-3.07 -1.93,-6.09 -3,-9.09 L 76.39,93.6 Z"
         class="cls-4"
         inkscape:connector-curvature="0"
         style="fill:#34aa5a" />
      <path
         id="path4529"
         d="m 36.09,57.71 22.47,6.6 c 0.09,0.07 0.2,0.13 0.27,0 0.07,-0.13 -0.07,-0.11 -0.11,-0.17 L 56.38,59.6 c 1.65,0.49 3.11,0.9 4.55,1.37 0.2,0.06 0.33,0.37 0.45,0.59 1.06,1.93 2.1,3.89 3.19,5.81 0.33,0.58 0.16,0.81 -0.36,1.08 -2,1 -3.89,2.09 -5.83,3.15 a 1,1 0 0 1 -0.83,0.21 L 53.12,70.48 58,67.78 53.93,66.57 35.85,61.21 A 5.06,5.06 0 0 0 35.2,61.1 C 31.93,60 28.63,59 25.27,58.18 c 0,0 -0.11,-0.11 -0.13,-0.1 -0.02,0.01 -0.05,0.14 0,0.2 l 2.38,4.66 C 25.84,62.43 24.39,62 22.95,61.52 c -0.2,-0.07 -0.34,-0.37 -0.46,-0.59 -1,-1.91 -2.05,-3.83 -3.13,-5.72 -0.34,-0.59 -0.26,-0.87 0.34,-1.19 1.86,-1 3.7,-2 5.54,-3 a 1.87,1.87 0 0 1 1.67,-0.17 c 1.17,0.41 2.37,0.71 3.89,1.16 l -4.93,2.71 z"
         class="cls-4"
         inkscape:connector-curvature="0"
         style="fill:#34aa5a" />
      <path
         id="path4531"
         d="m 62.18,35.22 c 0.81,3.4 1.94,6.71 2.92,10.06 1.23,4.24 2.52,8.46 3.86,13 l 2.69,-4.87 c 0.51,1.65 0.95,3.07 1.37,4.5 0.09,0.31 -0.13,0.56 -0.27,0.82 -1,1.88 -2.05,3.75 -3,5.65 -0.36,0.7 -0.68,0.75 -1.35,0.37 -1.79,-1 -3.61,-2 -5.44,-2.95 a 1.75,1.75 0 0 1 -1,-1.21 c -0.31,-1.24 -0.73,-2.45 -1.18,-3.95 l 4.73,2.51 A 8,8 0 0 0 64.85,56.32 C 62.92,49.8 61,43.31 59,36.83 a 6.61,6.61 0 0 0 -0.35,-0.8 c -0.7,-3 -1.74,-6 -2.6,-9 -0.16,-0.56 -0.34,-1.11 -0.57,-1.88 l -2.68,4.9 -1.3,-4.54 c -0.09,-0.32 0.12,-0.56 0.25,-0.82 1,-1.91 2.08,-3.81 3.08,-5.74 0.32,-0.62 0.63,-0.65 1.2,-0.33 1.9,1.06 3.81,2.07 5.73,3.1 a 1.38,1.38 0 0 1 0.75,0.89 c 0.37,1.3 0.78,2.59 1.26,4.2 l -5,-2.68 z"
         class="cls-4"
         inkscape:connector-curvature="0"
         style="fill:#34aa5a" />
      <path
         id="path4533"
         d="m 47.33,94 -7,6.67 0.1,0.28 h 5 l 0.11,0.29 -3.23,3.07 c -0.21,0.2 -0.49,0.14 -0.74,0.14 -2.21,0 -4.42,0 -6.64,0 -0.63,0 -0.83,-0.19 -0.81,-0.82 0.06,-2.21 0.06,-4.42 0.08,-6.63 a 1,1 0 0 1 0.22,-0.83 L 37.72,93 v 5.55 l 7.44,-7.31 c 3.61,-3.5 7.24,-6.95 10.84,-10.46 1.62,-1.6 3.12,-3.32 4.68,-5 H 55.55 A 30.72,30.72 0 0 1 59,72.36 1.23,1.23 0 0 1 59.75,72.24 c 2.1,0 4.2,0.13 6.3,0.12 0.74,0 1,0.15 1,1 C 67,75.46 67,77.6 67,79.74 a 1.43,1.43 0 0 1 -0.35,1 c -0.92,1.05 -1.82,2.13 -2.73,3.19 l -0.44,-0.35 v -5.31 l -4.25,4.09 -11.41,11.1 A 7.66,7.66 0 0 0 47.33,94 Z"
         class="cls-4"
         inkscape:connector-curvature="0"
         style="fill:#34aa5a" />
      <path
         id="path4535"
         d="m 77.62,86.26 q -0.58,3 -1.16,6.05 a 2.74,2.74 0 0 0 -0.07,1.31 l -4.58,-13.68 -2.5,5 C 68.89,83.76 68.62,82.76 68.2,81.83 a 3.13,3.13 0 0 1 0.26,-3.1 c 0.87,-1.54 1.65,-3.13 2.38,-4.74 0.34,-0.74 0.63,-0.88 1.37,-0.48 a 50.75,50.75 0 0 0 5.75,2.66 c -0.85,-1.48 -1.66,-3 -2.57,-4.42 -0.43,-0.68 -0.29,-1 0.38,-1.35 1.83,-1 3.62,-2.08 5.62,-3.25 a 15.55,15.55 0 0 0 -3.7,-0.25 c -1,-0.06 -2,0 -3,0 -0.57,0 -0.78,-0.17 -0.76,-0.76 0.06,-2.21 0.08,-4.42 0.1,-6.63 a 1.28,1.28 0 0 1 0.3,-0.91 c 1,-1.06 1.88,-2.15 2.82,-3.22 l 0.4,0.32 V 61 l 6.27,-6 -1.22,6 a 28.21,28.21 0 0 0 -2.79,2.52 h 2.29 c -0.61,3.21 -1.21,6.41 -1.83,9.62 -0.49,2.52 -1,5 -1.55,7.54 L 75,78.82 c 1,2.62 1.58,5.1 2.62,7.44 z"
         class="cls-4"
         inkscape:connector-curvature="0"
         style="fill:#34aa5a" />
      <path
         id="path4537"
         d="M 94.46,74.23 97.65,58 l 0.22,-0.06 6.45,18.87 a 95.59,95.59 0 0 1 -9.86,-2.58 z"
         class="cls-3"
         inkscape:connector-curvature="0"
         style="fill:#f59e24" />
      <path
         id="path4539"
         d="M 96.06,43.15 100.2,39 h -5.13 c 1.11,-1.22 2.11,-2.36 3.16,-3.46 0.14,-0.14 0.49,-0.11 0.74,-0.11 2.14,0 4.28,0.07 6.42,0 0.76,0 0.93,0.27 0.92,1 0,2.25 0,4.5 0,6.75 h -3.59 c 0,-0.52 0,-1 0,-1.77 -0.65,0.72 -1.3,1.09 -1.65,1.77 z"
         class="cls-4"
         inkscape:connector-curvature="0"
         style="fill:#34aa5a" />
      <path
         id="path4541"
         d="m 94.46,74.23 a 95.59,95.59 0 0 0 9.85,2.59 21.62,21.62 0 0 1 1.31,4 L 93.8,77.69 Z"
         class="cls-4"
         inkscape:connector-curvature="0"
         style="fill:#34aa5a" />
      <path
         id="path4543"
         d="m 77.62,86.26 c -1,-2.33 -1.64,-4.82 -2.63,-7.44 l 3.74,1.84 z"
         class="cls-3"
         inkscape:connector-curvature="0"
         style="fill:#f59e24" />
      <path
         id="path4545"
         d="m 109.78,92.75 a 17.23,17.23 0 0 1 -3.52,-10.19 c 1.29,3.36 2.45,6.76 3.52,10.19 z"
         class="cls-2"
         inkscape:connector-curvature="0"
         style="fill:#fcc423" />
      <path
         id="path4547"
         d="M 82.11,63.5 H 79.82 A 28.21,28.21 0 0 1 82.61,61 Z"
         class="cls-3"
         inkscape:connector-curvature="0"
         style="fill:#f59e24" />
      <path
         id="path4549"
         d="m 101,43.15 c 0.35,-0.67 1,-1 1.65,-1.77 0,0.73 0,1.25 0,1.77 z"
         class="cls-2"
         inkscape:connector-curvature="0"
         style="fill:#fcc423" />
      <path
         id="path4551"
         d="m 105.75,80.87 a 0.14,0.14 0 0 1 -0.15,-0.1 z"
         class="cls-4"
         inkscape:connector-curvature="0"
         style="fill:#34aa5a" />
      <path
         id="path4553"
         d="m 358.55,86.18 -0.13,0.08 a 1,1 0 0 1 0,-0.18 c 0,0 0,-0.05 0.07,-0.08 z"
         class="cls-5"
         inkscape:connector-curvature="0"
         style="fill:#ffffff" />
      <path
         id="path4555"
         d="m 81.72,109.76 c 0,0 0.11,0.12 0.1,0.13 -0.01,0.01 -0.15,0.06 -0.22,0 z"
         class="cls-2"
         inkscape:connector-curvature="0"
         style="fill:#fcc423" />
      <path
         id="path4557"
         d="m 58.72,64.13 c 0,0.06 0.12,0.14 0.11,0.17 -0.01,0.03 -0.18,0.08 -0.27,0 z"
         class="cls-3"
         inkscape:connector-curvature="0"
         style="fill:#f59e24" />
      <path
         id="path4559"
         d="m 25.18,58.27 c -0.09,-0.05 -0.15,-0.12 0,-0.2 0.15,-0.08 0.08,0.07 0.13,0.1 z"
         class="cls-2"
         inkscape:connector-curvature="0"
         style="fill:#fcc423" />
    </g>
  </g>
</svg>
